<?xml version="1.0" encoding="UTF-8"?>
<svg id="Camada_2" data-name="Camada 2" xmlns="http://www.w3.org/2000/svg" viewBox="0 0 277.8 139.48">
  <defs>
    <style>
      .cls-1 {
        fill: #fff;
      }
    </style>
  </defs>
  <g id="Camada_1-2" data-name="Camada 1">
    <g>
      <path class="cls-1" d="M197.95,0c.15,0,.3.04.43.11.07.04.14.07.21.08,2.43.36,3.62,1.8,3.47,4.22-.35,5.65-6.39,10.37-10.47,10.7-14.72,1.19-29.31,3.32-43.55,7.41-10.72,3.08-20.8,7.48-29.78,14.19-2.28,1.7-4.39,3.63-6.59,5.43-2.28,1.86-4.67,3.64-7.71,3.8-2.17.12-4.36-.17-6.54-.35-1.73-.14-3.45-.37-5.18-.55-1.4-.14-1.91-.65-2.27-2-.27-1.03-.57-2.08-1.07-3.01-1.33-2.47-3.96-3.84-6.36-3.47-2.71.42-4.9,2.37-5.31,5.27-.47,3.26-.77,6.56-.83,9.85-.26,12.78-.4,25.56-.57,38.34,0,.45,0,.9.02,1.35.08,1.95,1.68,3.11,3.55,2.57,2.79-.81,5.57-1.68,8.36-2.5,12.6-3.72,25.39-6.5,38.41-8.32,15.81-2.21,31.69-2.88,47.63-2.21,1.67.07,3.33.16,5,.29,2.92.24,4.58-1.38,4.32-4.28-.21-2.35-.51-4.69-.69-7.05-.72-9.48-.87-18.94,1.36-28.28,1.06-4.42,2.77-8.55,5.58-12.19,6.6-8.55,16.96-7.62,22.75-4.1,4.22,2.57,6.64,6.62,8.16,11.21,1.53,4.62,1.47,9.37.74,14.11-1.46,9.41-5.05,18.11-8.94,26.71-.46,1.01-.96,2-1.33,3.04-.82,2.27-.12,3.46,2.27,3.82,2.13.32,4.27.54,6.41.83,9.16,1.26,18.15,3.29,27.05,5.77,2.33.65,3.24,2.23,2.69,4.74-1.29,5.87-3.23,11.54-5.77,16.98-2.2,4.71-4.9,9.09-8.48,12.9-6.17,6.55-13.79,9.38-22.69,8.78-4.21-.28-8.04-1.88-11.47-4.28-2.38-1.67-4.55-3.64-6.8-5.48,0,0,0,0,0,0-.4-.33-.97-.32-1.34.03-1.82,1.72-3.57,3.45-5.46,5.02-2.95,2.45-6.3,4.16-10.15,4.74-4.39.67-8.39-.47-12.18-2.61-3.23-1.83-6-4.25-8.57-6.9-.05-.05-.11-.11-.16-.16-.34-.35-.89-.4-1.29-.12-2.47,1.71-4.86,3.5-7.41,5-5.99,3.51-12.48,5.37-19.48,4.98-5.37-.3-10.19-1.95-13.97-6.02-2.53-2.73-3.38-6.08-3.74-9.61-.54-5.26.19-10.39,2.07-15.33.27-.71.6-1.4.96-2.12s-.21-1.53-1-1.45c-2.69.27-5.19.87-7.38,2.5-2.3,1.71-3.13,4.2-3.24,6.93-.15,3.57-.05,7.16-.24,10.73-.34,6.55-3.07,11.93-8.67,15.44-10.03,6.28-26.01,5.82-34.69-6.2-1.11-1.54-1.93-3.3-2.86-5.06-.24-.45-.76-.65-1.24-.48-4.02,1.49-8.18,3.04-12.36,4.55-6.74,2.44-13.47,4.91-20.25,7.26-2.42.84-4.95,1.37-7.57,1.04-1.67-.21-3.17-.83-4.41-1.94-1.06-.94-2.1-1.95-2.96-3.07-1.67-2.17-3.21-4.44-4.78-6.69-.38-.54-.68-1.13-.96-1.72-1.15-2.42-.69-3.93,1.73-5.11,1.3-.64,2.69-1.1,4.07-1.56,16.31-5.5,32.63-10.99,48.95-16.47.57-.19.79-.44.8-1.08.32-17.5.62-35.01,1.02-52.51.17-7.27,2.19-13.98,7.02-19.58,8.48-9.83,22.41-11.38,33.16-3.63,2.12,1.53,3.99,3.41,6.02,5.25.37.33.93.35,1.31.03.78-.64,1.67-1.37,2.56-2.08,10.32-8.12,21.96-13.69,34.41-17.68,9.54-3.06,19.29-5.23,29.22-6.45,7.1-.88,14.24-1.41,21.36-2.11.11-.01.21-.05.31-.1C192.67.03,192.82,0,192.96,0c1.66,0,3.32,0,4.98,0ZM147.94,105.96c-.01-2.18-.4-5.05-1.89-7.66-.85-1.48-2.02-2.53-3.84-2.68-6.22-.5-12.25.63-18.21,2.21-1.39.37-2.24,1.46-2.6,2.88-.72,2.79-.51,5.58.03,8.36,1.28,6.59,4.74,11.17,11.58,12.79,5.8,1.37,10.44-.7,13.01-6.05,1.38-2.87,1.93-5.92,1.92-9.85ZM166.6,93.48s-.05,0-.07,0c-2.03.12-4.07.21-6.1.36-1.99.15-2.85,1.01-3.06,2.99-.05.44-.09.93.04,1.34.63,2.15,1.1,4.38,2.01,6.41,1.87,4.2,4.29,8.09,7.82,11.15,1.93,1.67,4.21,2.41,6.75,2.18,5.45-.49,9.35-3.33,11.62-8.24,2.3-4.97.75-9.9-3.89-12.83-.87-.55-1.82-1.01-2.78-1.39-3.96-1.58-8.12-1.93-12.33-1.98ZM211.5,96.32s-.05,0-.07,0c-2.3.07-4.64.17-6.73,1.28-.93.49-1.94,1.27-2.36,2.18-1.32,2.83-1.63,5.85-.9,8.93.96,4.05,3.51,6.98,6.65,9.54,2.73,2.22,5.77,2.76,9.09,1.88,5.08-1.35,8.04-4.92,9.83-9.63.71-1.85.95-3.76.41-5.71-.78-2.86-2.8-4.64-5.3-5.96-3.31-1.76-6.9-2.38-10.62-2.5ZM79.67,122.18s.1,0,.15,0c.24-.03.64-.06,1.04-.15,3.81-.88,7.14-5.58,6.68-9.46-.19-1.63-.7-2.89-3.08-2.37-3.42.75-6.62,1.83-9.14,4.38-1.72,1.75-1.7,4.08,0,5.85,1.13,1.18,2.52,1.73,4.36,1.75Z"/>
      <path class="cls-1" d="M277.8,120.21c-.2.6-.42,1.2-.6,1.81-1.9,6.4-8.2,10.79-14.61,10.17-7.19-.7-12.51-5.82-13.21-12.73-.8-7.85,4.65-14.59,12.65-15.65,7.26-.96,14.3,4.38,15.56,11.81.03.15.13.28.2.42v4.17Z"/>
    </g>
  </g>
</svg>